<svg xmlns="http://www.w3.org/2000/svg" xmlns:xlink="http://www.w3.org/1999/xlink" width="200" height="200" viewBox="0 0 200 200">
  <defs>
    <clipPath id="clip-arrow">
      <rect width="200" height="200"/>
    </clipPath>
  </defs>
  <g id="arrow" clip-path="url(#clip-arrow)">
    <rect width="200" height="200" fill="rgba(255,255,255,0)"/>
    <g id="Rectangle_2" data-name="Rectangle 2" transform="translate(14 14)" fill="#d3d3d3" stroke="#000" stroke-width="3">
      <rect width="173" height="173" rx="20" stroke="none"/>
      <rect x="1.5" y="1.5" width="170" height="170" rx="18.5" fill="none"/>
    </g>
    <g id="Group_1" data-name="Group 1" transform="translate(20.388 8.79)">
      <g id="Union_1" data-name="Union 1" transform="translate(25.612 39.21)">
        <path d="M 83.96527099609375 105 L 28.31037139892578 105 L 28.31037139892578 55.27119827270508 L 28.31037139892578 54.27119827270508 L 27.31037139892578 54.27119827270508 L 2.405821800231934 54.27119827270508 L 54.99965286254883 1.417702436447144 L 107.5941390991211 54.27119827270508 L 84.96527099609375 54.27119827270508 L 83.96527099609375 54.27119827270508 L 83.96527099609375 55.27119827270508 L 83.96527099609375 105 Z" stroke="none"/>
        <path d="M 82.96527862548828 104 L 82.96527862548828 53.27119827270508 L 105.1883010864258 53.27119827270508 L 54.99967193603516 2.835405826568604 L 4.81165885925293 53.27119827270508 L 29.31036949157715 53.27119827270508 L 29.31036949157715 104 L 82.96527862548828 104 M 84.96527862548828 106 L 27.31036949157715 106 L 27.31036949157715 55.27119827270508 L 0 55.27119827270508 L 54.99966049194336 0 L 110 55.27119827270508 L 84.96527862548828 55.27119827270508 L 84.96527862548828 106 Z" stroke="none" fill="#000"/>
      </g>
    </g>
  </g>
</svg>
